<svg id="Layer_1" height="512" viewBox="0 0 512 512" width="512" xmlns="http://www.w3.org/2000/svg" data-name="Layer 1"><path d="m472.6 296.51a20.244 20.244 0 0 0 12.81-4.54c-17.28 111.15-113.41 196.22-229.41 196.22-128.23 0-232.19-103.96-232.19-232.19q0-8.49.61-16.83a18.356 18.356 0 0 1 29.03 14.94v30.25a18.23 18.23 0 0 0 36.46 0v-80.01a20.255 20.255 0 1 1 40.51 0v37.47a20.254 20.254 0 0 0 34.84 14.06h.12v.12a90.628 90.628 0 0 0 179.08 19.73l.16.03a20.767 20.767 0 0 1 28.59 19.23v71.4a20.255 20.255 0 0 0 40.51 0v-135.71a19.245 19.245 0 0 1 38.49 0v45.44a20.383 20.383 0 0 0 20.39 20.39z" fill="#f6c583"/><path d="m55.872 281.14-2.422-27.03a18.348 18.348 0 0 0 -29.03-14.94q-.615 8.34-.61 16.83c0 128.23 103.96 232.19 232.19 232.19q7.594 0 15.068-.491c-94.598-6.007-173.802-68.657-204.068-154.412a213.96 213.96 0 0 1 -11.128-52.147z" fill="#ffe3c2"/><path d="m488.19 256a233.109 233.109 0 0 1 -2.78 35.97 20.379 20.379 0 0 1 -33.2-15.85v-45.44a19.245 19.245 0 0 0 -38.49 0v135.71a20.255 20.255 0 1 1 -40.51 0v-71.4a20.767 20.767 0 0 0 -28.59-19.23l-.16-.03a90.626 90.626 0 1 0 -179.08-19.85h-.12a20.255 20.255 0 0 1 -34.84-14.06v-37.47a20.255 20.255 0 1 0 -40.51 0v80.01a18.23 18.23 0 0 1 -36.46 0v-30.25a18.348 18.348 0 0 0 -29.03-14.94c8.61-120.37 109.01-215.36 231.58-215.36 128.23 0 232.19 103.96 232.19 232.19z" fill="#ff5a81"/><path d="m248.26 60.89a9.36 9.36 0 0 1 .54 3.15 9.461 9.461 0 0 1 -6.31 8.91l-26.11 9.21a9.453 9.453 0 0 1 -6.29-17.83l26.11-9.21a9.457 9.457 0 0 1 12.06 5.77z" fill="#d8ff33"/><path d="m194.91 129.57a9.445 9.445 0 0 1 2.43 13.14l-15.69 22.81a9.444 9.444 0 0 1 -13.14 2.42h-.01a9.447 9.447 0 0 1 -2.43-13.14l15.7-22.81a9.447 9.447 0 0 1 13.14-2.43z" fill="#d8ff33"/><path d="m418.08 153.88a9.453 9.453 0 0 1 .98 13.33l-.01.01a9.44 9.44 0 0 1 -13.32.97l-20.96-18.09a9.441 9.441 0 0 1 -.98-13.32v-.01a9.453 9.453 0 0 1 13.33-.98z" fill="#d8ff33"/><path d="m364.7 182.74a12.5 12.5 0 1 1 -12.49 12.49 12.494 12.494 0 0 1 12.49-12.49z" fill="#55d8d8"/><path d="m356.6 65.27a13.165 13.165 0 1 1 -13.17 13.16 13.166 13.166 0 0 1 13.17-13.16z" fill="#55d8d8"/><path d="m314.94 126.52c.03.31.04.61.04.92a9.465 9.465 0 0 1 -8.53 9.41l-27.56 2.68a9.447 9.447 0 0 1 -10.32-8.49c-.03-.31-.05-.63-.05-.94a9.437 9.437 0 0 1 8.54-9.38l27.56-2.69a9.447 9.447 0 0 1 10.32 8.49z" fill="#d8ff33"/><path d="m163.5 64.55a9.83 9.83 0 1 1 -9.83 9.83 9.837 9.837 0 0 1 9.83-9.83z" fill="#55d8d8"/><path d="m256 23.81c-122.57 0-222.97 94.99-231.58 215.36a18.356 18.356 0 0 1 29.03 14.94l.36 1.89q0-8.49.61-16.83c8.256-115.413 100.9-207.477 216.558-214.87-4.954-.311-9.945-.49-14.978-.49z" fill="#ffc5d6"/><path d="m136.92 116.67a9.436 9.436 0 0 1 -6.76 11.52l-26.8 6.98a9.45 9.45 0 0 1 -11.52-6.77l-.01-.01a9.45 9.45 0 0 1 6.77-11.52l26.8-6.97a9.436 9.436 0 0 1 11.52 6.76z" fill="#d8ff33"/><path d="m60.88 189.5a10.465 10.465 0 1 1 -10.47 10.46 10.456 10.456 0 0 1 10.47-10.46z" fill="#55d8d8"/><g fill="#284268"><path d="m253.916 58.891a15.467 15.467 0 0 0 -19.709-9.428l-26.107 9.212a15.451 15.451 0 0 0 -9.45 19.65c.007.022.015.044.023.065a15.446 15.446 0 0 0 19.709 9.429l26.111-9.212a15.465 15.465 0 0 0 9.449-19.649c-.01-.023-.018-.045-.026-.067zm-13.419 8.4-26.111 9.209a3.454 3.454 0 0 1 -4.386-2.073l-.013-.035a3.45 3.45 0 0 1 2.1-4.4l26.113-9.213a3.456 3.456 0 0 1 4.39 2.075l.013.036a3.455 3.455 0 0 1 -2.103 4.401z"/><path d="m142.715 115.112a15.447 15.447 0 0 0 -18.83-11.02l-26.8 6.972a15.448 15.448 0 0 0 -11.062 18.842l.018.064a15.465 15.465 0 0 0 14.909 11.507 15.561 15.561 0 0 0 3.916-.5l26.8-6.973a15.467 15.467 0 0 0 11.06-18.841c-.002-.019-.006-.035-.011-.051zm-14.069 7.275-26.8 6.972a3.447 3.447 0 0 1 -4.2-2.469l-.01-.038a3.448 3.448 0 0 1 2.477-4.175l26.8-6.972a3.447 3.447 0 0 1 4.206 2.468l.008.031a3.452 3.452 0 0 1 -2.481 4.183z"/><path d="m379.249 132.85-.04.046a15.449 15.449 0 0 0 1.636 21.748l20.96 18.092a15.336 15.336 0 0 0 10.071 3.754c.383 0 .769-.014 1.155-.042a15.348 15.348 0 0 0 10.506-5.247c.021-.024.041-.048.063-.072a15.469 15.469 0 0 0 -1.6-21.789l-20.961-18.092a15.467 15.467 0 0 0 -21.79 1.602zm35.295 30.407-.034.038a3.448 3.448 0 0 1 -4.864.357l-20.959-18.092a3.448 3.448 0 0 1 -.358-4.865l.023-.026a3.45 3.45 0 0 1 4.845-.336l20.961 18.092a3.454 3.454 0 0 1 .386 4.832z"/><path d="m320.9 125.875a15.447 15.447 0 0 0 -16.869-13.816l-27.557 2.686a15.449 15.449 0 0 0 -13.887 16.774c0 .036.006.072.01.108a15.471 15.471 0 0 0 15.364 13.951q.75 0 1.511-.074l27.557-2.686a15.468 15.468 0 0 0 13.878-16.875c.001-.022-.007-.043-.007-.068zm-15.035 5-27.557 2.686a3.457 3.457 0 0 1 -3.763-3.048c0-.019 0-.038 0-.057a3.451 3.451 0 0 1 3.1-3.768l27.555-2.688a3.448 3.448 0 0 1 3.768 3.1v.04a3.454 3.454 0 0 1 -3.1 3.735z"/><path d="m198.383 124.67-.073-.051a15.468 15.468 0 0 0 -21.485 3.97l-15.694 22.811a15.448 15.448 0 0 0 3.9 21.438l.074.052a15.463 15.463 0 0 0 21.484-3.97l15.7-22.81a15.449 15.449 0 0 0 -3.9-21.437zm-5.983 14.635-15.7 22.811a3.453 3.453 0 0 1 -4.762.909c-.012-.008-.025-.018-.039-.026a3.45 3.45 0 0 1 -.885-4.8l15.695-22.811a3.452 3.452 0 0 1 4.761-.91l.041.028a3.45 3.45 0 0 1 .886 4.8z"/><path d="m179.336 74.38a15.834 15.834 0 1 0 -15.836 15.834 15.852 15.852 0 0 0 15.836-15.834zm-19.668 0a3.834 3.834 0 1 1 3.834 3.834 3.838 3.838 0 0 1 -3.834-3.834z"/><path d="m375.766 78.431a19.166 19.166 0 1 0 -19.166 19.169 19.188 19.188 0 0 0 19.166-19.169zm-26.331 0a7.166 7.166 0 1 1 7.165 7.169 7.172 7.172 0 0 1 -7.165-7.169z"/><path d="m364.7 176.744a18.491 18.491 0 1 0 18.49 18.491 18.512 18.512 0 0 0 -18.49-18.491zm0 24.982a6.491 6.491 0 1 1 6.49-6.491 6.5 6.5 0 0 1 -6.49 6.491z"/><path d="m60.877 183.5a16.465 16.465 0 1 0 16.465 16.465 16.484 16.484 0 0 0 -16.465-16.465zm0 20.93a4.465 4.465 0 1 1 4.465-4.465 4.47 4.47 0 0 1 -4.465 4.461z"/><path d="m256 17.812a238.188 238.188 0 0 0 -168.424 406.612 238.188 238.188 0 1 0 336.848-336.848 236.627 236.627 0 0 0 -168.424-69.764zm159.938 398.127a226.188 226.188 0 0 1 -386.126-159.939c0-4.439.143-8.856.395-13.252a12.364 12.364 0 0 1 17.242 11.36v30.249a24.23 24.23 0 0 0 48.46 0v-80.007a14.255 14.255 0 0 1 28.51 0v37.471a26.289 26.289 0 0 0 35.525 24.58 96.621 96.621 0 0 0 189.512 14.137 14.752 14.752 0 0 1 17.756 14.453v71.4a26.255 26.255 0 0 0 52.51 0v-135.71a13.242 13.242 0 0 1 26.484 0v45.44a26.311 26.311 0 0 0 31.309 25.91 224.609 224.609 0 0 1 -61.577 113.908zm-244.555-159.939a84.617 84.617 0 1 1 84.617 84.618 84.714 84.714 0 0 1 -84.617-84.618zm308.487 32.533a14.2 14.2 0 0 1 -7.275 1.977 14.405 14.405 0 0 1 -14.389-14.389v-45.44a25.242 25.242 0 0 0 -50.484 0v135.709a14.255 14.255 0 0 1 -28.51 0v-71.4a26.792 26.792 0 0 0 -26.762-26.762c-.2 0-.4.011-.6.015a96.618 96.618 0 1 0 -192.413-15.192 14.112 14.112 0 0 1 -8.758 3.025 14.271 14.271 0 0 1 -14.255-14.256v-37.47a26.255 26.255 0 0 0 -52.51 0v80.007a12.23 12.23 0 0 1 -24.46 0v-30.249a24.39 24.39 0 0 0 -24.363-24.363 24.638 24.638 0 0 0 -3.794.294 226.2 226.2 0 0 1 384.641-133.978 224.7 224.7 0 0 1 66.25 159.939 229.546 229.546 0 0 1 -2.318 32.533z"/><path d="m295.312 447.324a196.042 196.042 0 0 1 -39.312 3.976 6 6 0 0 0 0 12 208.035 208.035 0 0 0 41.724-4.22 6 6 0 1 0 -2.412-11.755z"/><path d="m228.75 449.405a194.722 194.722 0 0 1 -107.812-52.467 6 6 0 0 0 -8.3 8.662 206.731 206.731 0 0 0 114.45 55.689 6.141 6.141 0 0 0 .841.059 6 6 0 0 0 .825-11.943z"/><path d="m95.729 367.485a6 6 0 0 0 -9.84 6.869c2.246 3.218 4.609 6.408 7.023 9.48a6 6 0 1 0 9.436-7.413c-2.275-2.896-4.501-5.902-6.619-8.936z"/></g></svg>