<svg id="Layer_1" height="512" viewBox="0 0 512 512" width="512" xmlns="http://www.w3.org/2000/svg" data-name="Layer 1"><path d="m472.6 296.51a20.244 20.244 0 0 0 12.81-4.54c-17.28 111.15-113.41 196.22-229.41 196.22-128.23 0-232.19-103.96-232.19-232.19q0-8.49.61-16.83a18.356 18.356 0 0 1 29.03 14.94v30.25a18.23 18.23 0 0 0 36.46 0v-80.01a20.255 20.255 0 1 1 40.51 0v37.47a20.254 20.254 0 0 0 34.84 14.06h.12v.12a90.628 90.628 0 0 0 179.08 19.73l.16.03a20.767 20.767 0 0 1 28.59 19.23v71.4a20.255 20.255 0 0 0 40.51 0v-135.71a19.245 19.245 0 0 1 38.49 0v45.44a20.383 20.383 0 0 0 20.39 20.39z" fill="#f6c583"/><path d="m55.872 281.14-2.422-27.03a18.348 18.348 0 0 0 -29.03-14.94q-.615 8.34-.61 16.83c0 128.23 103.96 232.19 232.19 232.19q7.594 0 15.068-.491c-94.598-6.007-173.802-68.657-204.068-154.412a213.96 213.96 0 0 1 -11.128-52.147z" fill="#ffe3c2"/><path d="m488.19 256a233.109 233.109 0 0 1 -2.78 35.97 20.379 20.379 0 0 1 -33.2-15.85v-45.44a19.245 19.245 0 0 0 -38.49 0v135.71a20.255 20.255 0 1 1 -40.51 0v-71.4a20.767 20.767 0 0 0 -28.59-19.23l-.16-.03a90.626 90.626 0 1 0 -179.08-19.85h-.12a20.255 20.255 0 0 1 -34.84-14.06v-37.47a20.255 20.255 0 1 0 -40.51 0v80.01a18.23 18.23 0 0 1 -36.46 0v-30.25a18.348 18.348 0 0 0 -29.03-14.94c8.61-120.37 109.01-215.36 231.58-215.36 128.23 0 232.19 103.96 232.19 232.19z" fill="#ff5a81"/><g fill="#d8ff33"><path d="m248.26 60.89a9.36 9.36 0 0 1 .54 3.15 9.461 9.461 0 0 1 -6.31 8.91l-26.11 9.21a9.453 9.453 0 0 1 -6.29-17.83l26.11-9.21a9.457 9.457 0 0 1 12.06 5.77z"/><path d="m194.91 129.57a9.445 9.445 0 0 1 2.43 13.14l-15.69 22.81a9.444 9.444 0 0 1 -13.14 2.42h-.01a9.447 9.447 0 0 1 -2.43-13.14l15.7-22.81a9.447 9.447 0 0 1 13.14-2.43z"/><path d="m418.08 153.88a9.453 9.453 0 0 1 .98 13.33l-.01.01a9.44 9.44 0 0 1 -13.32.97l-20.96-18.09a9.441 9.441 0 0 1 -.98-13.32v-.01a9.453 9.453 0 0 1 13.33-.98z"/></g><path d="m364.7 182.74a12.5 12.5 0 1 1 -12.49 12.49 12.494 12.494 0 0 1 12.49-12.49z" fill="#55d8d8"/><path d="m356.6 65.27a13.165 13.165 0 1 1 -13.17 13.16 13.166 13.166 0 0 1 13.17-13.16z" fill="#55d8d8"/><path d="m314.94 126.52c.03.31.04.61.04.92a9.465 9.465 0 0 1 -8.53 9.41l-27.56 2.68a9.447 9.447 0 0 1 -10.32-8.49c-.03-.31-.05-.63-.05-.94a9.437 9.437 0 0 1 8.54-9.38l27.56-2.69a9.447 9.447 0 0 1 10.32 8.49z" fill="#d8ff33"/><path d="m163.5 64.55a9.83 9.83 0 1 1 -9.83 9.83 9.837 9.837 0 0 1 9.83-9.83z" fill="#55d8d8"/><path d="m256 23.81c-122.57 0-222.97 94.99-231.58 215.36a18.356 18.356 0 0 1 29.03 14.94l.36 1.89q0-8.49.61-16.83c8.256-115.413 100.9-207.477 216.558-214.87-4.954-.311-9.945-.49-14.978-.49z" fill="#ffc5d6"/><path d="m136.92 116.67a9.436 9.436 0 0 1 -6.76 11.52l-26.8 6.98a9.45 9.45 0 0 1 -11.52-6.77l-.01-.01a9.45 9.45 0 0 1 6.77-11.52l26.8-6.97a9.436 9.436 0 0 1 11.52 6.76z" fill="#d8ff33"/><path d="m60.88 189.5a10.465 10.465 0 1 1 -10.47 10.46 10.456 10.456 0 0 1 10.47-10.46z" fill="#55d8d8"/><path d="m256 463.3a6 6 0 0 1 0-12 196.042 196.042 0 0 0 39.312-3.975 6 6 0 1 1 2.412 11.755 208.035 208.035 0 0 1 -41.724 4.22z" fill="#d69f5f"/><path d="m227.925 461.348a6.141 6.141 0 0 1 -.841-.059 206.731 206.731 0 0 1 -114.45-55.689 6 6 0 0 1 8.3-8.662 194.722 194.722 0 0 0 107.816 52.467 6 6 0 0 1 -.825 11.943z" fill="#d69f5f"/><path d="m97.634 386.128a5.988 5.988 0 0 1 -4.722-2.294c-2.414-3.072-4.777-6.262-7.023-9.48a6 6 0 0 1 9.84-6.869c2.118 3.034 4.344 6.04 6.619 8.936a6 6 0 0 1 -4.714 9.707z" fill="#d69f5f"/></svg>